<svg width="31" height="31" viewBox="0 0 31 31" fill="none" xmlns="http://www.w3.org/2000/svg">
<path d="M28.0938 15.5H23.25V11.625C23.25 9.4877 24.9877 7.75 27.125 7.75H27.6094C28.4146 7.75 29.0625 7.10215 29.0625 6.29688V3.39062C29.0625 2.58535 28.4146 1.9375 27.6094 1.9375H27.125C21.7727 1.9375 17.4375 6.27266 17.4375 11.625V26.1562C17.4375 27.7607 18.7393 29.0625 20.3438 29.0625H28.0938C29.6982 29.0625 31 27.7607 31 26.1562V18.4062C31 16.8018 29.6982 15.5 28.0938 15.5ZM10.6562 15.5H5.8125V11.625C5.8125 9.4877 7.5502 7.75 9.6875 7.75H10.1719C10.9771 7.75 11.625 7.10215 11.625 6.29688V3.39062C11.625 2.58535 10.9771 1.9375 10.1719 1.9375H9.6875C4.33516 1.9375 0 6.27266 0 11.625V26.1562C0 27.7607 1.30176 29.0625 2.90625 29.0625H10.6562C12.2607 29.0625 13.5625 27.7607 13.5625 26.1562V18.4062C13.5625 16.8018 12.2607 15.5 10.6562 15.5Z" fill="black"/>
</svg>
