<svg width="622" height="536" viewBox="0 0 622 536" fill="none" xmlns="http://www.w3.org/2000/svg">
<g clip-path="url(#clip0_467_263)">
<path d="M443.723 524.717L433.259 524.716L428.281 484.354L443.725 484.355L443.723 524.717Z" fill="#FFB6B6"/>
<path d="M446.392 534.86L412.651 534.859V534.432C412.651 530.949 414.035 527.609 416.498 525.146C418.961 522.683 422.301 521.3 425.784 521.3H425.785L431.948 516.624L443.447 521.3L446.392 521.3L446.392 534.86Z" fill="#2F2E41"/>
<path d="M612.76 486.549L605.626 494.203L572.705 470.325L583.235 459.029L612.76 486.549Z" fill="#FFB6B6"/>
<path d="M622 491.512L598.994 516.194L598.682 515.903C596.134 513.528 594.634 510.239 594.512 506.758C594.389 503.277 595.655 499.89 598.029 497.342L598.811 489.645L610.072 484.421L612.081 482.266L622 491.512Z" fill="#2F2E41"/>
<path d="M597.277 463.865L586.216 486.997L518.298 442.028L508.417 428.566L476.019 384.424L462.85 405.321L453.687 427.165C450.7 429.113 448.184 431.7 446.319 434.739C444.454 437.778 443.287 441.193 442.903 444.738L442.484 448.605L448.274 500.659L426.266 507.417L413.626 437.489L417.758 422.337L422.012 401.067L443.43 333.854H500.743L533.616 403.825L536.019 418.083L545.34 428.78L597.277 463.865Z" fill="#2F2E41"/>
<path d="M478.168 223.886L487.816 231.233L499.452 234.808C499.452 234.808 504.262 302.471 508.596 306.805C512.93 311.14 509.021 311.256 509.892 316.887C510.763 322.517 512.88 334.059 512.88 334.059C483.623 349.546 458.401 349.961 438.141 331.839C437.882 330.718 438.014 329.542 438.515 328.506C439.016 327.47 439.855 326.637 440.895 326.143C444.665 324.143 440.5 318 440.5 313.243C440.5 307 440.5 298.5 440.5 298.5L440.895 284.5L443.5 265L445.326 237.718L454.838 234.245L458.638 225.09L478.168 223.886Z" fill="#3F3D56"/>
<path d="M484.212 344.146C484.169 342.924 484.394 341.707 484.872 340.582C485.349 339.456 486.068 338.449 486.977 337.631C487.886 336.814 488.964 336.205 490.133 335.849C491.303 335.493 492.537 335.397 493.747 335.569L507.344 309.14L514.92 322.6L500.846 345.634C500.422 347.648 499.274 349.437 497.62 350.662C495.965 351.886 493.919 352.462 491.868 352.278C489.818 352.095 487.906 351.165 486.495 349.667C485.084 348.168 484.271 346.203 484.212 344.146Z" fill="#FFB6B6"/>
<path d="M507.111 337.681L536.275 292.48L536.179 292.272C536.068 292.034 529.464 277.77 523.065 264.706C522.08 262.694 521.099 260.711 520.148 258.811C519.737 257.992 519.333 257.189 518.935 256.404C516.247 251.105 513.899 246.725 512.497 244.645C509.397 239.942 504.781 236.44 499.416 234.722L499.281 234.687L499.152 234.741C496.528 235.848 494.359 237.817 493.004 240.322C491.649 242.827 491.188 245.719 491.697 248.522C494.226 262.039 499.863 274.783 508.162 285.748L512.89 291.98L496.46 327.701L507.111 337.681Z" fill="#3F3D56"/>
<path d="M406.824 164.419C407.627 165.341 408.218 166.428 408.556 167.603C408.893 168.778 408.969 170.013 408.778 171.221C408.586 172.428 408.133 173.579 407.448 174.593C406.764 175.606 405.866 176.457 404.817 177.086L410.897 206.179L396.536 200.493L392.965 173.737C392.025 171.906 391.791 169.793 392.305 167.8C392.819 165.806 394.047 164.071 395.755 162.922C397.464 161.774 399.534 161.291 401.574 161.567C403.614 161.843 405.482 162.858 406.824 164.419Z" fill="#FFB6B6"/>
<path d="M393.107 183.86L398.914 237.339L399.119 237.44C399.289 237.523 406.646 241.131 415.677 245.429C417.201 246.154 417 246 421 248C423.937 249.326 422.568 248.686 423.676 249.204C433.547 253.821 443.529 258.309 447.507 259.526C452.877 261.227 458.668 261.041 463.917 258.997L464.044 258.939L464.11 258.816C465.452 256.304 465.897 253.409 465.372 250.609C464.847 247.81 463.384 245.273 461.224 243.416C450.747 234.509 438.343 228.158 424.992 224.865L417.395 223.001L407.665 184.906L393.107 183.86Z" fill="#3F3D56"/>
<path d="M467.881 220.856C478.421 220.856 486.965 212.312 486.965 201.772C486.965 191.232 478.421 182.688 467.881 182.688C457.341 182.688 448.797 191.232 448.797 201.772C448.797 212.312 457.341 220.856 467.881 220.856Z" fill="#FFB6B6"/>
<path d="M448.934 188.984C450.503 184.418 458.316 181.251 470.982 180.811C483.647 180.37 486.859 195.296 486.859 195.296C495.315 202.155 477.831 220.518 476.985 219.857L477.365 216.407C477.995 210.692 480.671 206.233 477.268 200.278L474 200.315C469.779 201.127 465.559 201.938 461.338 202.75L466.335 198.351L466.194 198.133C464.069 199.24 461.756 199.942 459.374 200.204C456.688 200.361 453.752 199.293 452.466 196.93C452.122 196.28 451.912 195.569 451.848 194.837C448.227 196.284 446.571 200.748 446.571 200.748C446.571 200.748 447.364 193.55 448.934 188.984Z" fill="#2F2E41"/>
<path d="M76.8897 190.129C76.6308 189.801 76.352 189.488 76.0548 189.194C76.1274 189.094 76.2001 188.986 76.2727 188.886L76.8897 190.129Z" fill="#2F2E41"/>
<path d="M80.6013 266.884C77.4795 272.429 71.245 275.524 65.0651 277.039C58.1235 278.857 50.8138 278.716 43.9478 276.631C43.0766 276.35 42.2054 276.023 41.3614 275.66C41.7672 274.582 42.0888 273.475 42.3234 272.348C42.6393 270.822 42.7974 269.268 42.7953 267.71C42.1076 269.052 41.2169 270.28 40.1544 271.349C39.3349 272.21 38.4041 272.958 37.3866 273.573C34.2307 271.657 31.4981 269.119 29.3554 266.113C29.4914 265.777 29.6276 265.442 29.7547 265.106C30.4136 263.352 30.9355 261.55 31.3155 259.715C31.8311 257.235 32.0896 254.708 32.0869 252.174C30.968 254.357 29.5168 256.353 27.7853 258.091C27.2662 258.646 26.7148 259.171 26.1338 259.661C25.234 256.928 24.8862 254.044 25.1106 251.176C25.3349 248.308 26.1269 245.513 27.4405 242.954C31.0342 236.311 38.0037 232.364 44.211 228.071C50.4272 223.779 56.6436 217.971 57.1699 210.43C57.5238 205.339 55.1644 200.238 56.1081 195.229C56.5051 193.117 57.4741 191.154 58.9097 189.554C60.3452 187.954 62.1923 186.779 64.2495 186.157C66.3068 185.534 68.4955 185.488 70.5771 186.024C72.6587 186.56 74.5534 187.656 76.0547 189.194C72.5337 194.185 69.0308 199.349 67.606 205.284C66.1541 211.328 67.3429 218.415 72.1072 222.417C73.7407 223.797 75.7462 224.777 77.0077 226.501C78.6865 228.788 78.6956 231.837 78.9678 234.65C79.5123 240.123 81.3001 245.386 82.262 250.804C83.233 256.212 83.2875 262.084 80.6013 266.884Z" fill="#2F2E41"/>
<path d="M16.6068 491.928L24.8893 498.327L53.5136 469.426L41.2893 459.981L16.6068 491.928Z" fill="#FFB6B6"/>
<path d="M16.9591 485.675L30.6553 495.01L26.321 500.62L32.1257 518.834C32.4125 519.734 32.4043 520.701 32.1022 521.596C31.8 522.49 31.2199 523.265 30.4464 523.807C29.6729 524.348 28.7466 524.628 27.8026 524.606C26.8587 524.584 25.9466 524.26 25.1995 523.683L9.61253 511.639L11.2132 504.014L5.87689 508.752L0 504.211L16.9591 485.675Z" fill="#2F2E41"/>
<path d="M58.6265 206.252C58.6253 209.488 59.4185 212.675 60.9364 215.532C62.4544 218.39 64.6507 220.832 67.3325 222.643C70.0143 224.454 73.0997 225.579 76.3177 225.919C79.5358 226.259 82.7882 225.804 85.7894 224.594C88.7905 223.383 91.4487 221.455 93.5306 218.978C95.6124 216.5 97.0544 213.55 97.7297 210.385C98.4051 207.22 98.2932 203.938 97.404 200.827C96.5148 197.715 94.8753 194.87 92.6296 192.54L92.5348 192.445C92.3766 192.279 92.2184 192.113 92.0523 191.955L92.0493 191.954L92.0467 191.952L92.045 191.95L92.0445 191.947C91.8389 191.757 91.6332 191.567 91.4197 191.385C87.9404 188.333 83.0501 185.02 78.0603 185.02C67.1398 185.02 58.6265 195.331 58.6265 206.252Z" fill="#2F2E41"/>
<path d="M171.308 196.099C171.403 197.154 171.265 198.216 170.905 199.212C170.545 200.207 169.97 201.111 169.223 201.861C168.475 202.61 167.572 203.187 166.578 203.55C165.583 203.912 164.521 204.053 163.466 203.961L114.513 248.161L106.088 234.856L156.857 195.592C157.129 193.831 158.038 192.23 159.411 191.094C160.784 189.958 162.527 189.365 164.308 189.427C166.089 189.49 167.786 190.203 169.076 191.433C170.366 192.663 171.16 194.323 171.308 196.099Z" fill="#FFB6B6"/>
<path d="M93.5907 261.502C93.5907 261.502 95.4121 264.866 101.634 259.672C106.615 255.513 130.478 237.46 135.619 230.062C136.793 230.527 138.089 230.588 139.301 230.236C140.514 229.884 141.575 229.139 142.317 228.117L128.231 215.781C124.017 216.266 124.107 219.097 124.546 220.705L113.92 225.519L86.4825 243.053L92.2309 259.094L93.5907 261.502Z" fill="#41B30B"/>
<path d="M67.0098 292.496L65.9838 297.382L65.1125 315.405L103.47 317.513L102.279 289.793L98.5609 283.684L67.0098 292.496Z" fill="#FFB6B6"/>
<path d="M83.2663 227.403C92.4218 227.403 99.8437 219.981 99.8437 210.826C99.8437 201.67 92.4218 194.248 83.2663 194.248C74.1109 194.248 66.689 201.67 66.689 210.826C66.689 219.981 74.1109 227.403 83.2663 227.403Z" fill="#FFB6B6"/>
<path d="M53.8352 271.971L53.7332 258.191C53.7309 253.233 55.4087 248.42 58.4931 244.538C61.5775 240.656 65.8863 237.934 70.7167 236.815L70.7792 236.801L74.0572 232.384L87.375 233.716L89.816 238.705L99.4662 244.451L103.182 256.395C104.793 257.469 106.167 258.864 107.217 260.491C108.267 262.118 108.971 263.944 109.285 265.855C110.547 273.913 104.905 281.975 104.234 282.899L102.505 292.637L64.8913 299.274L64.5858 299.313L53.8352 271.971Z" fill="#41B30B"/>
<path d="M103.552 207.87C101.618 209.095 99.6119 210.201 97.5441 211.183C95.4454 212.191 93.2503 212.984 90.9921 213.551C90.346 212.134 89.5553 210.786 88.6326 209.531C88.87 211.019 88.8761 212.534 88.6507 214.023C84.9077 214.627 81.074 214.313 77.4795 213.107L74.3578 207.87L74.1218 213.715C71.5355 214.187 68.9582 214.631 66.3719 215.094C66.2176 215.112 66.0633 215.149 65.9181 215.176C64.3118 207.934 66.5896 199.957 71.6535 195.129C74.1676 192.757 77.3039 191.148 80.697 190.49C84.0902 189.831 87.6006 190.15 90.8197 191.409C91.228 191.572 91.6454 191.753 92.0447 191.944L92.0454 191.948L92.0473 191.951L92.0503 191.952L92.0538 191.953C92.2898 192.071 92.4894 192.352 92.7526 192.325C104.078 191.064 104.441 199.848 103.552 207.87Z" fill="#2F2E41"/>
<path d="M75.9739 470.553L84.2692 476.935L112.836 447.976L100.593 438.557L75.9739 470.553Z" fill="#FFB6B6"/>
<path d="M77.0657 464.877L90.7807 474.185L86.4577 479.803L92.2993 498.006C92.5879 498.905 92.5816 499.872 92.2813 500.767C91.981 501.663 91.4024 502.438 90.63 502.981C89.8576 503.524 88.9318 503.806 87.9878 503.786C87.0438 503.766 86.1311 503.444 85.3828 502.868L69.7716 490.856L71.3569 483.228L66.0301 487.977L60.1441 483.448L77.0657 464.877Z" fill="#2F2E41"/>
<path d="M49.056 435.209L49.0556 435.101L52.9871 428.326L48.9726 419.507L48.8521 396.85L49.5029 393.448C50.3782 388.874 50.1235 384.155 48.761 379.701L48.6877 365.909C48.5466 362.454 53.8988 359.416 52.6507 356.535C40.8533 329.311 64.6977 308.542 64.8587 308.375L65.346 307.869L67.9897 309.871L70.5061 309.874L104.463 316.062L104.708 316.519C106.044 319.024 108.621 327.659 108.774 331.566C110.467 333.525 129.744 355.832 131.458 357.382C143.038 367.86 149.668 385.202 152.589 394.607C153.315 396.931 153.461 399.398 153.015 401.792C152.569 404.185 151.545 406.434 150.031 408.341L106.193 456.359L94.3952 445.469L118.116 402.244L116.405 397.859C113.336 397.293 110.559 395.679 108.547 393.293L103.743 387.592C102.414 386.018 101.569 384.092 101.311 382.047L98.3977 381.697L87.9636 370.742L80.7246 436.298L78.7566 441.476L44.4832 481.769L29.9634 472.694L49.056 435.209Z" fill="#2F2E41"/>
<path d="M43.8219 153.72C43.1634 154.549 42.6947 155.512 42.4488 156.541C42.2028 157.571 42.1857 158.642 42.3985 159.679C42.6113 160.716 43.0488 161.694 43.6804 162.544C44.312 163.393 45.1222 164.094 46.0539 164.597L35.1556 196.861L44.0546 231.052L58.4043 224.565L49.5494 198.775L56.1743 161.237C56.915 159.615 57.0352 157.779 56.5123 156.075C55.9893 154.371 54.8595 152.918 53.3369 151.992C51.8143 151.065 50.0047 150.729 48.251 151.048C46.4974 151.366 44.9214 152.317 43.8219 153.72Z" fill="#FFB6B6"/>
<path d="M56.9569 259.224C56.9569 259.224 53.5866 261.034 51.2426 253.275C49.3661 247.064 36.5957 213.338 36.3655 204.332C35.1292 204.076 34.0133 203.415 33.1936 202.455C32.374 201.494 31.8971 200.289 31.8383 199.027L50.3859 196.46C53.6406 199.182 52.0094 201.498 50.7594 202.599L57.0765 213.3L70.2804 242.187L59.4163 257.959L56.9569 259.224Z" fill="#41B30B"/>
<path d="M66.3682 215.093C68.2729 209.349 71.6882 204.223 76.256 200.253C80.8238 196.284 86.3757 193.617 92.3292 192.532C92.3529 192.524 92.432 192.492 92.5348 192.445C92.598 192.405 92.6771 192.366 92.7562 192.326C92.519 192.192 92.2896 192.073 92.0524 191.955L92.0493 191.954L92.0468 191.952L92.0451 191.95L92.0445 191.947C91.8389 191.757 91.6333 191.567 91.4198 191.385L90.8188 191.409C90.8188 191.409 69.6973 188.064 66.3682 215.093Z" fill="#FD6584"/>
<path d="M119.97 199.225C115.316 199.211 110.83 197.483 107.37 194.371C103.91 191.258 101.718 186.98 101.214 182.353L90.413 82.0379C89.8823 77.0572 91.349 72.0694 94.4913 68.1688C97.6336 64.2681 102.195 61.7733 107.174 61.2315L427.887 26.6994C432.868 26.1685 437.855 27.635 441.756 30.7772C445.657 33.9194 448.152 38.4807 448.694 43.4603L459.495 143.775C460.026 148.756 458.559 153.744 455.417 157.644C452.274 161.545 447.713 164.04 442.733 164.582L122.021 199.114C121.34 199.188 120.655 199.225 119.97 199.225Z" fill="#E6E6E6"/>
<path d="M424.354 31.3565C423.752 31.3567 423.15 31.3891 422.551 31.4537L113.401 64.7408C111.24 64.9736 109.145 65.6298 107.237 66.6721C105.329 67.7143 103.645 69.1222 102.281 70.8153C100.917 72.5084 99.8998 74.4536 99.2876 76.5398C98.6755 78.626 98.4802 80.8123 98.713 82.974L104.174 133.694C105.057 141.894 107.546 149.839 111.5 157.077C115.453 164.314 120.793 170.702 127.215 175.876C133.638 181.05 141.016 184.908 148.929 187.23C156.843 189.552 165.136 190.293 173.335 189.41L390.719 166.003C398.893 165.123 406.815 162.642 414.03 158.7C421.246 154.759 427.614 149.435 432.772 143.032C437.93 136.629 441.776 129.273 444.091 121.384C446.407 113.495 447.145 105.227 446.265 97.0525L440.783 46.142C440.346 42.0868 438.428 38.3355 435.397 35.6071C432.365 32.8787 428.433 31.3651 424.354 31.3565Z" fill="white"/>
<path d="M359.252 84.1416L186.465 102.746C185.97 102.8 185.471 102.756 184.994 102.617C184.517 102.477 184.072 102.245 183.685 101.934C183.297 101.622 182.975 101.237 182.737 100.801C182.499 100.365 182.348 99.8863 182.295 99.3921C182.242 98.898 182.287 98.3982 182.427 97.9214C182.567 97.4446 182.8 97.0001 183.112 96.6132C183.424 96.2264 183.809 95.9049 184.245 95.6671C184.682 95.4293 185.161 95.2798 185.655 95.2273L358.443 76.6226C358.937 76.5688 359.436 76.6128 359.913 76.7523C360.39 76.8917 360.835 77.1239 361.222 77.4354C361.61 77.7469 361.932 78.1317 362.17 78.5678C362.409 79.0038 362.559 79.4826 362.612 79.9768C362.665 80.4709 362.62 80.9706 362.48 81.4475C362.34 81.9243 362.107 82.3688 361.795 82.7556C361.483 83.1425 361.098 83.464 360.662 83.7018C360.225 83.9396 359.746 84.089 359.252 84.1416Z" fill="#41B30B"/>
<path d="M361.737 107.218L188.949 125.822C187.952 125.93 186.953 125.637 186.172 125.008C185.391 124.378 184.892 123.465 184.785 122.468C184.678 121.471 184.971 120.472 185.6 119.691C186.229 118.91 187.143 118.411 188.14 118.303L360.927 99.6987C361.924 99.5914 362.923 99.8845 363.704 100.514C364.485 101.143 364.984 102.056 365.091 103.053C365.199 104.051 364.906 105.049 364.277 105.83C363.647 106.611 362.734 107.11 361.737 107.218Z" fill="#41B30B"/>
<path d="M211.57 146.73L191.434 148.898C190.437 149.005 189.438 148.712 188.657 148.083C187.876 147.454 187.377 146.54 187.27 145.543C187.162 144.546 187.455 143.547 188.084 142.766C188.714 141.985 189.627 141.486 190.624 141.379L210.76 139.211C211.254 139.157 211.754 139.201 212.231 139.341C212.708 139.48 213.153 139.712 213.54 140.024C213.927 140.335 214.249 140.72 214.488 141.156C214.726 141.592 214.876 142.071 214.929 142.565C214.983 143.059 214.938 143.559 214.798 144.036C214.658 144.513 214.425 144.957 214.113 145.344C213.801 145.731 213.416 146.052 212.979 146.29C212.543 146.528 212.064 146.677 211.57 146.73Z" fill="#41B30B"/>
<path d="M113.172 86.2708C116.931 86.2708 119.978 83.2234 119.978 79.4644C119.978 75.7053 116.931 72.658 113.172 72.658C109.412 72.658 106.365 75.7053 106.365 79.4644C106.365 83.2234 109.412 86.2708 113.172 86.2708Z" fill="#3F3D56"/>
<path d="M417.758 52.2388C421.517 52.2388 424.564 49.1914 424.564 45.4324C424.564 41.6733 421.517 38.626 417.758 38.626C413.999 38.626 410.951 41.6733 410.951 45.4324C410.951 49.1914 413.999 52.2388 417.758 52.2388Z" fill="#3F3D56"/>
<path d="M325.738 191.971C325.113 191.422 324.617 190.74 324.288 189.976C323.959 189.211 323.804 188.383 323.836 187.551C324.177 177.665 322.549 167.809 319.046 158.559C318.749 157.781 318.629 156.947 318.694 156.117C318.76 155.287 319.01 154.482 319.425 153.761C319.824 153.068 320.369 152.47 321.023 152.01C321.677 151.55 322.423 151.239 323.21 151.098C331.122 146.324 339.232 144.984 347.32 147.115C348.625 146.923 349.955 147.203 351.072 147.903C352.189 148.603 353.019 149.679 353.415 150.936C356.69 161.568 358.511 172.594 358.83 183.714C358.861 185.048 358.409 186.348 357.558 187.376C356.706 188.403 355.513 189.089 354.197 189.308L330.261 193.262C329.458 193.396 328.636 193.35 327.854 193.127C327.072 192.904 326.349 192.509 325.738 191.971Z" fill="#41B30B"/>
<path d="M327.864 163.167L348.01 159.839C348.176 159.812 348.335 159.752 348.477 159.664C348.62 159.575 348.744 159.46 348.842 159.323C348.94 159.187 349.01 159.033 349.048 158.869C349.086 158.706 349.092 158.537 349.064 158.371C349.037 158.205 348.977 158.047 348.888 157.904C348.8 157.762 348.684 157.638 348.547 157.541C348.411 157.443 348.256 157.373 348.093 157.336C347.929 157.298 347.76 157.293 347.594 157.32L327.448 160.649C327.115 160.704 326.817 160.89 326.621 161.165C326.424 161.44 326.345 161.782 326.4 162.115C326.455 162.449 326.64 162.747 326.914 162.944C327.189 163.141 327.53 163.221 327.864 163.167Z" fill="white"/>
<path d="M329.528 173.24L349.674 169.912C350.008 169.857 350.307 169.671 350.504 169.396C350.701 169.121 350.781 168.779 350.725 168.445C350.67 168.111 350.485 167.812 350.21 167.615C349.934 167.418 349.592 167.338 349.258 167.394L329.112 170.722C328.946 170.749 328.788 170.808 328.645 170.897C328.502 170.985 328.379 171.101 328.281 171.237C328.183 171.373 328.113 171.528 328.075 171.691C328.036 171.855 328.031 172.024 328.058 172.189C328.086 172.355 328.145 172.514 328.234 172.656C328.323 172.799 328.439 172.922 328.575 173.02C328.712 173.117 328.866 173.187 329.03 173.225C329.193 173.263 329.363 173.268 329.528 173.24Z" fill="white"/>
<path d="M331.192 183.313L351.338 179.985C351.672 179.93 351.971 179.744 352.168 179.469C352.365 179.194 352.445 178.852 352.39 178.518C352.334 178.184 352.149 177.885 351.874 177.688C351.599 177.491 351.256 177.411 350.922 177.467L330.776 180.795C330.611 180.822 330.453 180.882 330.31 180.97C330.168 181.059 330.044 181.175 329.947 181.311C329.849 181.447 329.779 181.601 329.741 181.764C329.703 181.928 329.698 182.097 329.725 182.262C329.753 182.427 329.812 182.586 329.901 182.728C329.989 182.87 330.105 182.994 330.241 183.091C330.377 183.189 330.531 183.259 330.695 183.297C330.858 183.335 331.027 183.34 331.192 183.313Z" fill="white"/>
</g>
<defs>
<clipPath id="clip0_467_263">
<rect width="622" height="535.675" fill="white"/>
</clipPath>
</defs>
</svg>
