<svg width="59" height="59" viewBox="0 0 59 59" fill="none" xmlns="http://www.w3.org/2000/svg">
<g clip-path="url(#clip0_77_277)">
<path d="M58.5 29.5C58.5 45.5163 45.5163 58.5 29.5 58.5C13.4837 58.5 0.5 45.5163 0.5 29.5C0.5 13.4837 13.4837 0.5 29.5 0.5C45.5163 0.5 58.5 13.4837 58.5 29.5Z" fill="#F5EEE5" stroke="black"/>
<mask id="mask0_77_277" style="mask-type:luminance" maskUnits="userSpaceOnUse" x="0" y="0" width="59" height="59">
<path d="M29.5 59C45.7924 59 59 45.7924 59 29.5C59 13.2076 45.7924 0 29.5 0C13.2076 0 0 13.2076 0 29.5C0 45.7924 13.2076 59 29.5 59Z" fill="white"/>
</mask>
<g mask="url(#mask0_77_277)">
<path d="M38.35 44.7812L54.811 49.3242C56.699 49.9732 58.174 51.3892 59 53.2182V59.0002H0V53.2182C0.767 51.3892 2.301 49.9732 4.189 49.3242L20.65 44.7812V35.9902H38.35V44.7812Z" fill="#E6C19C"/>
</g>
<mask id="mask1_77_277" style="mask-type:luminance" maskUnits="userSpaceOnUse" x="0" y="0" width="59" height="59">
<path d="M29.5 59C45.7924 59 59 45.7924 59 29.5C59 13.2076 45.7924 0 29.5 0C13.2076 0 0 13.2076 0 29.5C0 45.7924 13.2076 59 29.5 59Z" fill="white"/>
</mask>
<g mask="url(#mask1_77_277)">
<mask id="mask2_77_277" style="mask-type:luminance" maskUnits="userSpaceOnUse" x="0" y="35" width="59" height="24">
<path d="M38.35 44.7812L54.811 49.3242C56.699 49.9732 58.174 51.3892 59 53.2182V59.0002H0V53.2182C0.767 51.3892 2.301 49.9732 4.189 49.3242L20.65 44.7812V35.9902H38.35V44.7812Z" fill="white"/>
</mask>
<g mask="url(#mask2_77_277)">
<path d="M0 34.2202H59V59.0002H0V34.2202ZM29.5 51.9202C35.99 51.9202 41.3 48.2032 41.3 43.6602C41.3 39.1172 35.99 35.4002 29.5 35.4002C23.01 35.4002 17.7 39.1172 17.7 43.6602C17.7 48.2032 23.01 51.9202 29.5 51.9202Z" fill="#E6A422"/>
</g>
<mask id="mask3_77_277" style="mask-type:luminance" maskUnits="userSpaceOnUse" x="0" y="35" width="59" height="24">
<path d="M38.35 44.7812L54.811 49.3242C56.699 49.9732 58.174 51.3892 59 53.2182V59.0002H0V53.2182C0.767 51.3892 2.301 49.9732 4.189 49.3242L20.65 44.7812V35.9902H38.35V44.7812Z" fill="white"/>
</mask>
<g mask="url(#mask3_77_277)">
<path d="M29.5 46.0204C28.497 46.0204 27.199 45.7844 26.314 45.3714C25.311 44.8404 21.594 41.7724 20.296 40.4744C18.644 38.7044 17.818 36.4624 17.582 32.6274C17.346 28.7924 16.343 15.1044 16.343 11.9774C16.343 7.55241 19.706 0.649414 29.382 0.649414H29.441H29.5C39.235 0.708414 42.539 7.55241 42.539 11.9774C42.539 15.1044 41.536 28.7924 41.3 32.6274C41.064 36.4624 40.238 38.6454 38.586 40.4744C37.347 41.8314 33.63 44.8404 32.568 45.3714C31.801 45.7844 30.503 46.0204 29.5 46.0204Z" fill="#D4B08C"/>
</g>
<mask id="mask4_77_277" style="mask-type:luminance" maskUnits="userSpaceOnUse" x="0" y="35" width="59" height="24">
<path d="M38.35 44.7812L54.811 49.3242C56.699 49.9732 58.174 51.3892 59 53.2182V59.0002H0V53.2182C0.767 51.3892 2.301 49.9732 4.189 49.3242L20.65 44.7812V35.9902H38.35V44.7812Z" fill="white"/>
</mask>
<g mask="url(#mask4_77_277)">
<path d="M29.5001 34.2202C22.0071 34.2202 15.9301 38.5862 15.9301 43.9552C15.9301 49.3242 22.0071 53.6902 29.5001 53.6902C36.9931 53.6902 43.0701 49.3242 43.0701 43.9552C43.0701 38.5862 36.9931 34.2202 29.5001 34.2202ZM29.5001 51.3302C23.3051 51.3302 18.2901 47.7902 18.2901 43.3652C18.2901 38.9402 23.3051 35.4002 29.5001 35.4002C35.6951 35.4002 40.7101 38.9402 40.7101 43.3652C40.7101 47.7902 35.6951 51.3302 29.5001 51.3302Z" fill="#D98C21"/>
</g>
</g>
<path d="M29.5 43.6599C28.615 43.6599 27.435 43.4829 26.668 43.1289C25.724 42.7159 22.42 40.4149 21.299 39.4119C19.824 38.0549 19.057 36.4029 18.821 33.5119C18.585 30.6209 17.7 20.3549 17.7 17.9949C17.7 14.6319 20.709 9.43994 29.5 9.43994C38.291 9.43994 41.3 14.6319 41.3 17.9949C41.3 20.3549 40.415 30.6799 40.179 33.5709C39.943 36.4619 39.235 38.1139 37.701 39.4709C36.58 40.4739 33.217 42.7749 32.332 43.1879C31.565 43.4829 30.385 43.6599 29.5 43.6599Z" fill="#F2CEA5"/>
<path d="M33.63 36.2851C32.509 37.4651 30.562 38.0551 28.851 37.7011C27.258 37.3471 26.078 36.5211 25.488 35.1641L33.63 36.2851Z" fill="#A3705F"/>
<path d="M33.63 36.2851C32.509 37.4651 30.562 38.0551 28.851 37.7011C27.258 37.3471 26.078 36.5211 25.488 35.1641L33.63 36.2851Z" stroke="#A3705F" stroke-linecap="round" stroke-linejoin="round"/>
<mask id="mask5_77_277" style="mask-type:luminance" maskUnits="userSpaceOnUse" x="20" y="24" width="19" height="4">
<path d="M38.3501 24.1899H20.0601V27.1399H38.3501V24.1899Z" fill="white"/>
</mask>
<g mask="url(#mask5_77_277)">
<path d="M34.81 27.7301C35.4617 27.7301 35.99 27.2018 35.99 26.5501C35.99 25.8984 35.4617 25.3701 34.81 25.3701C34.1583 25.3701 33.63 25.8984 33.63 26.5501C33.63 27.2018 34.1583 27.7301 34.81 27.7301Z" fill="#FF335C"/>
</g>
<mask id="mask6_77_277" style="mask-type:luminance" maskUnits="userSpaceOnUse" x="20" y="24" width="19" height="4">
<path d="M38.3501 24.1899H20.0601V27.1399H38.3501V24.1899Z" fill="white"/>
</mask>
<g mask="url(#mask6_77_277)">
<path d="M24.19 27.7301C24.8417 27.7301 25.37 27.2018 25.37 26.5501C25.37 25.8984 24.8417 25.3701 24.19 25.3701C23.5383 25.3701 23.01 25.8984 23.01 26.5501C23.01 27.2018 23.5383 27.7301 24.19 27.7301Z" fill="#FF335C"/>
</g>
<path d="M20.65 24.7798C20.65 24.7798 21.299 23.0098 24.249 23.0098C26.255 23.0098 27.435 23.8948 28.025 24.7798" stroke="#CC9872" stroke-width="2"/>
<path d="M38.4091 24.7798C38.4091 24.7798 37.7601 23.0098 34.8101 23.0098C31.9781 23.0098 30.6801 24.7798 30.6801 25.9598C30.6801 27.0808 30.6801 31.2698 30.6801 31.2698" stroke="#BB8660" stroke-width="2"/>
<path d="M40.592 28.4379C40.592 28.4379 41.064 24.7209 42.775 24.1899C43.011 23.1279 43.66 20.0599 43.66 18.3489C43.66 16.6379 43.483 14.9859 42.539 13.5699C41.477 12.0359 39.235 11.1509 38.055 11.1509C36.698 11.9769 33.512 13.8649 32.509 14.9859C31.978 15.5759 32.745 16.0479 32.745 16.0479C32.745 16.0479 33.453 15.7529 33.748 15.6939C35.223 15.2809 38.468 14.9859 39.471 16.4609C40.71 18.2309 40.71 23.4229 40.71 24.1899C40.71 24.8979 40.592 28.4379 40.592 28.4379Z" fill="#452228"/>
<path d="M16.225 24.1901C17.936 24.7801 18.408 28.4381 18.408 28.4381C18.408 28.4381 18.29 24.8981 18.29 24.1901C18.29 23.2461 18.408 18.8211 20.296 16.6971C22.42 14.3371 25.252 13.5701 26.845 14.6321C27.671 15.1631 30.444 17.8771 33.394 15.6351C35.164 14.2781 38.409 11.2101 38.409 11.2101C38.409 11.2101 36.698 5.95907 28.91 6.54907C25.606 6.84407 21.948 6.01807 21.948 6.01807C21.948 6.01807 21.889 7.49307 22.479 8.26007C17.582 9.67607 15.989 13.2161 15.517 15.9301C15.399 16.4611 15.34 16.9921 15.34 17.5231C15.34 17.8181 15.34 18.1131 15.34 18.3491C15.34 20.0601 15.989 23.0691 16.225 24.1901Z" fill="#6B363E"/>
</g>
<defs>
<clipPath id="clip0_77_277">
<rect width="59" height="59" fill="white"/>
</clipPath>
</defs>
</svg>
